<?xml version="1.0" standalone="no"?>
<!DOCTYPE svg PUBLIC "-//W3C//DTD SVG 20010904//EN"
 "http://www.w3.org/TR/2001/REC-SVG-20010904/DTD/svg10.dtd">
<svg version="1.0" xmlns="http://www.w3.org/2000/svg"
 width="711.000000pt" height="711.000000pt" viewBox="0 0 711.000000 711.000000"
 preserveAspectRatio="xMidYMid meet">
<metadata>
Created by potrace 1.14, written by Peter Selinger 2001-2017
</metadata>
<g transform="translate(0.000000,711.000000) scale(0.100000,-0.100000)"
fill="#000000" stroke="none">
<path d="M2298 6495 c-2 -2 -41 -6 -88 -10 -47 -4 -92 -9 -101 -10 -15 -3 -36
-6 -154 -20 -58 -6 -212 -35 -305 -56 -25 -6 -54 -13 -65 -15 -283 -57 -403
-166 -460 -419 -5 -19 -9 -47 -20 -140 -3 -22 -8 -62 -12 -90 -8 -58 -7 -267
1 -322 15 -92 20 -110 38 -140 11 -18 23 -33 28 -33 5 0 15 -6 22 -13 7 -7 21
-18 32 -24 15 -8 3 -15 -69 -37 -48 -15 -104 -38 -124 -51 -39 -24 -44 -41
-42 -145 4 -272 2 -331 -19 -435 -13 -65 -15 -74 -24 -180 -4 -38 -9 -86 -11
-105 -3 -19 -7 -57 -10 -85 -3 -27 -10 -72 -15 -100 -5 -27 -12 -70 -15 -95
-8 -59 -16 -108 -21 -134 -10 -49 -4 -114 13 -166 11 -30 18 -68 17 -85 -11
-113 -3 -213 22 -273 9 -22 12 -53 8 -90 -6 -66 2 -77 121 -175 80 -66 166
-98 272 -100 17 -1 24 -9 28 -32 4 -16 10 -41 14 -55 5 -14 14 -45 21 -70 14
-53 12 -46 60 -180 67 -187 88 -223 134 -226 11 -1 35 -5 51 -8 17 -3 62 -9
100 -12 64 -5 76 -3 140 26 66 30 70 30 82 13 38 -53 112 -141 142 -168 19
-16 39 -34 45 -40 93 -86 581 -314 739 -346 43 -9 60 -18 73 -38 9 -14 45 -54
79 -88 58 -58 62 -65 56 -95 -3 -18 -5 -51 -4 -73 4 -69 13 -254 18 -410 6
-180 6 -175 34 -249 12 -33 25 -78 28 -100 5 -40 36 -86 57 -86 29 -1 39 -21
42 -87 2 -37 6 -83 9 -102 6 -34 28 -65 38 -55 3 3 18 -1 34 -9 48 -25 204
-77 278 -94 206 -44 195 -42 305 -59 218 -34 398 -15 643 68 l69 23 -4 111
c-4 96 -8 119 -32 167 -47 97 -188 190 -361 238 -44 12 -81 24 -83 25 -2 1 4
16 12 33 9 17 16 41 17 53 1 54 -11 190 -20 206 -5 9 -10 130 -11 267 -1 138
-3 266 -5 285 -6 70 -17 147 -35 245 -18 102 -21 115 -39 172 -7 23 -6 34 2
41 24 17 305 152 319 152 11 0 59 -68 113 -158 6 -9 22 -33 38 -53 15 -20 27
-41 27 -47 0 -5 26 -33 58 -63 31 -30 68 -69 81 -87 24 -32 71 -62 98 -62 19
0 33 -15 65 -70 54 -93 137 -165 226 -195 34 -12 45 -10 152 27 137 48 311
130 365 171 5 4 49 34 97 67 148 102 359 319 336 345 -5 6 -23 33 -41 60 -73
114 -139 147 -292 146 -75 0 -94 -3 -138 -20 -25 -10 -29 -8 -37 15 -6 14 -10
37 -10 50 0 33 -13 56 -74 129 -28 34 -67 84 -87 112 l-36 50 56 29 c31 16
115 64 186 108 72 43 139 83 150 90 115 66 374 256 464 341 218 205 334 553
266 802 -9 32 -18 66 -20 76 -7 29 -57 119 -93 167 -82 106 -219 203 -317 224
-16 3 -41 9 -55 12 -127 27 -232 21 -358 -22 -101 -34 -160 -68 -308 -175
-127 -92 -284 -194 -284 -183 0 3 -12 -3 -27 -14 -68 -47 -354 -182 -388 -182
-3 0 6 17 22 38 44 56 71 107 79 147 5 27 11 35 28 35 22 0 222 96 244 117 7
7 17 13 21 13 4 0 28 20 54 45 39 36 176 115 200 115 9 0 44 29 85 68 29 30
33 39 31 80 -5 101 -16 102 -226 23 -46 -17 -83 -29 -83 -26 0 2 26 19 58 39
64 39 208 158 247 204 14 16 25 40 25 51 0 24 -35 97 -56 119 -8 7 -14 21 -14
31 0 21 -43 70 -62 72 -44 4 -87 -22 -249 -150 -45 -35 -78 -57 -73 -49 11 18
125 147 176 198 38 38 78 97 78 115 0 6 -14 19 -32 30 -47 27 -103 21 -163
-19 -49 -32 -181 -156 -220 -206 -11 -14 -19 -24 -19 -22 1 2 -3 22 -8 45 -10
48 -52 97 -82 97 -12 0 -44 -25 -77 -60 -53 -56 -180 -227 -205 -276 -35 -68
-52 -168 -32 -192 11 -13 9 -14 -12 -7 -14 4 -32 13 -41 21 -13 12 -22 10 -65
-13 -27 -14 -51 -29 -54 -32 -6 -8 -108 -71 -115 -71 -15 0 -295 -192 -315
-216 -20 -24 -32 -29 -65 -28 -23 1 -50 6 -60 12 -11 5 -35 8 -54 6 -26 -3
-41 2 -60 19 -14 13 -48 39 -76 58 -27 18 -75 54 -105 79 -30 26 -102 81 -160
123 -58 42 -109 80 -115 85 -105 80 -105 80 -56 144 87 116 122 253 124 488 1
92 -9 170 -28 230 -3 11 -8 50 -10 87 -10 161 -50 268 -155 408 -16 22 -37 67
-45 100 -25 94 -69 159 -130 188 -28 14 -62 28 -75 31 -14 3 -38 9 -55 12 -29
7 -321 14 -327 9z m3617 -2049 c123 -13 239 -94 298 -211 96 -191 77 -393 -56
-591 -93 -139 -183 -213 -537 -439 -19 -13 -75 -46 -125 -75 -49 -29 -107 -64
-128 -77 -21 -13 -48 -28 -60 -34 -12 -5 -37 -18 -55 -29 -32 -20 -32 -20 -52
0 -11 11 -20 23 -20 26 0 3 -13 25 -30 49 -16 24 -48 82 -71 129 -22 48 -63
125 -90 172 -27 47 -49 89 -49 94 0 16 -92 164 -150 240 -32 42 -84 99 -115
128 -35 32 -52 54 -43 56 202 63 185 56 358 138 92 44 190 106 435 272 109 75
207 125 280 143 81 20 95 21 210 9z m-2491 -630 c82 -28 124 -38 166 -37 36 1
7 -14 -59 -29 -29 -7 -63 -22 -75 -34 -11 -11 -29 -22 -39 -23 -11 -2 -46 -12
-80 -23 -86 -28 -87 -28 -80 28 4 26 6 79 6 118 l0 71 42 -22 c23 -13 76 -35
119 -49z m783 -1025 c12 -19 20 -38 17 -42 -4 -6 47 -110 82 -166 13 -21 10
-23 -64 -54 -42 -17 -104 -42 -137 -55 -33 -12 -76 -29 -96 -38 -35 -15 -37
-14 -90 22 -89 60 -320 202 -328 202 -4 0 -13 11 -19 24 -11 25 -9 27 58 41 8
2 59 13 114 25 132 29 241 48 371 67 22 3 42 7 44 9 10 9 28 -4 48 -35z"/>
<path d="M5240 3919 c0 -5 5 -7 10 -4 6 3 10 8 10 11 0 2 -4 4 -10 4 -5 0 -10
-5 -10 -11z"/>
<path d="M3463 5263 c-15 -5 -18 -33 -4 -33 13 0 33 28 24 33 -4 2 -14 2 -20
0z"/>
<path d="M4298 5143 c7 -3 16 -2 19 1 4 3 -2 6 -13 5 -11 0 -14 -3 -6 -6z"/>
<path d="M3065 4970 c-3 -5 -2 -10 4 -10 5 0 13 5 16 10 3 6 2 10 -4 10 -5 0
-13 -4 -16 -10z"/>
<path d="M3852 4871 c2 -7 7 -12 11 -12 12 1 9 15 -3 20 -7 2 -11 -2 -8 -8z"/>
<path d="M3546 4813 c-6 -14 -5 -15 5 -6 7 7 10 15 7 18 -3 3 -9 -2 -12 -12z"/>
<path d="M3791 4646 c-19 -22 -5 -56 21 -51 27 6 35 14 40 40 2 15 -3 21 -23
23 -14 2 -31 -4 -38 -12z"/>
<path d="M315 4300 c3 -5 8 -10 11 -10 2 0 4 5 4 10 0 6 -5 10 -11 10 -5 0 -7
-4 -4 -10z"/>
<path d="M600 3320 c0 -5 5 -10 10 -10 6 0 10 5 10 10 0 6 -4 10 -10 10 -5 0
-10 -4 -10 -10z"/>
<path d="M870 2956 c0 -2 7 -7 16 -10 8 -3 12 -2 9 4 -6 10 -25 14 -25 6z"/>
<path d="M1557 2231 c-6 -25 10 -51 33 -51 23 0 39 26 33 51 -4 13 -14 19 -33
19 -19 0 -29 -6 -33 -19z"/>
</g>
</svg>
